<?xml version="1.0" standalone="no"?>
<!DOCTYPE svg PUBLIC "-//W3C//DTD SVG 20010904//EN"
 "http://www.w3.org/TR/2001/REC-SVG-20010904/DTD/svg10.dtd">
<svg version="1.0" xmlns="http://www.w3.org/2000/svg"
 width="576.000000pt" height="432.000000pt" viewBox="0 0 576.000000 432.000000"
 preserveAspectRatio="xMidYMid meet">

<g transform="translate(0.000000,432.000000) scale(0.100000,-0.100000)"
fill="#000000" stroke="none">
<path d="M0 3480 c0 -732 2 -840 15 -840 14 0 14 -5 0 -45 -4 -11 -10 -95 -12
-187 -4 -149 -3 -168 11 -168 9 0 16 -8 16 -19 0 -23 16 -36 25 -21 11 18 25
10 25 -15 0 -18 5 -25 20 -25 26 0 26 -16 0 -32 -21 -13 -28 -48 -10 -48 6 0
10 -18 10 -40 0 -40 26 -80 53 -80 25 0 -18 -20 -45 -20 -27 0 -28 -2 -28 -50
0 -49 1 -50 30 -50 23 0 30 -5 30 -19 0 -10 -9 -21 -20 -24 -21 -5 -28 -41
-10 -52 21 -13 50 19 50 57 0 38 0 38 40 38 39 0 40 -1 40 -35 0 -20 7 -52 15
-72 8 -19 15 -39 15 -44 0 -16 -18 -9 -23 9 -3 9 -5 2 -6 -16 0 -18 5 -42 11
-53 10 -17 10 -23 1 -26 -15 -6 -18 -83 -3 -83 6 0 10 18 10 40 0 33 4 40 19
40 11 0 22 10 26 22 7 22 7 22 12 3 3 -10 0 -21 -6 -23 -6 -2 -11 -21 -11 -43
0 -32 -4 -39 -19 -39 -11 0 -22 -6 -25 -12 -5 -10 -7 -10 -12 0 -3 6 -23 12
-45 12 -39 0 -39 0 -39 -40 0 -36 3 -40 25 -40 23 0 25 -4 25 -40 0 -29 4 -40
15 -40 8 0 15 -7 15 -15 0 -11 11 -15 40 -15 38 0 40 -2 40 -30 0 -28 -2 -30
-40 -30 l-40 0 0 -44 c0 -43 -1 -45 -27 -43 -24 2 -28 -2 -28 -23 0 -21 4 -25
28 -23 41 3 33 -14 -11 -22 -20 -3 -44 -11 -52 -16 -12 -9 -11 -10 4 -5 10 4
34 4 52 0 25 -5 34 -11 34 -26 0 -15 -3 -18 -13 -10 -6 5 -38 15 -70 22 -32 6
-61 18 -64 26 -3 8 -13 14 -22 14 -14 0 -14 -2 -1 -10 11 -7 11 -10 2 -10 -7
0 -17 10 -22 23 -5 12 -9 16 -9 10 -1 -7 -10 -13 -21 -13 -19 0 -20 -7 -20
-165 l0 -165 29 0 c31 0 153 -24 184 -35 9 -4 17 -14 17 -22 0 -10 -5 -13 -18
-8 -35 14 -78 23 -144 29 l-68 7 0 -381 0 -380 2880 0 2880 0 0 135 0 135 -57
0 c-53 1 -56 2 -39 15 11 8 37 15 58 15 36 0 38 1 38 33 0 25 -6 36 -28 49
-18 11 -33 14 -42 8 -8 -5 -35 -6 -61 -3 -30 4 -64 0 -97 -11 -39 -13 -56 -15
-72 -6 -11 6 -28 10 -37 8 -9 -2 -18 2 -20 8 -4 12 125 44 177 44 19 0 49 -4
67 -9 22 -7 39 -5 58 5 15 8 34 14 41 14 11 0 14 34 14 185 l0 184 -32 5 c-18
2 -69 9 -113 16 -44 6 -120 25 -170 41 -49 16 -112 37 -140 45 -27 9 -66 22
-85 29 -19 8 -98 38 -175 68 -140 55 -551 191 -613 203 -18 4 -35 11 -38 15
-3 5 -18 9 -34 9 -16 0 -32 5 -35 10 -3 6 -19 10 -35 10 -16 0 -31 4 -34 8 -2
4 -19 9 -38 10 -18 1 -88 9 -155 17 -115 14 -419 19 -543 9 -265 -21 -320 -27
-352 -35 -21 -5 -89 -11 -150 -13 -120 -4 -290 -25 -298 -36 -3 -4 -58 -13
-122 -20 -65 -7 -118 -17 -118 -21 0 -13 94 -16 103 -2 5 8 15 10 30 5 29 -10
98 -5 111 8 5 5 33 10 60 9 l51 -1 -35 -13 c-19 -7 -46 -14 -60 -14 -14 -1
-38 -8 -54 -16 -16 -9 -37 -13 -48 -10 -11 4 -20 1 -24 -9 -3 -9 -48 -29 -107
-47 -56 -17 -104 -35 -107 -38 -3 -4 -39 -18 -80 -31 -41 -14 -77 -28 -80 -31
-5 -5 -99 -43 -142 -56 -10 -3 -18 0 -18 6 0 6 8 11 18 12 14 0 14 2 -3 9 -16
7 -12 9 18 9 41 1 77 16 77 31 0 6 -7 10 -15 10 -8 0 -15 5 -15 11 0 6 7 9 15
6 8 -4 17 -2 20 3 4 6 -17 7 -54 3 -54 -5 -61 -4 -61 12 0 14 -6 16 -27 11
-48 -11 -158 -25 -162 -20 -2 2 3 4 12 4 10 0 17 5 17 10 0 6 17 10 38 10 31
0 61 12 92 37 2 2 -2 8 -10 13 -11 7 -1 10 31 10 32 0 49 5 53 15 7 19 36 19
36 0 0 -9 9 -15 25 -15 23 0 25 4 25 40 0 36 -2 40 -25 40 -21 0 -25 5 -25 29
0 16 -6 32 -12 34 -10 4 -10 8 -2 14 7 4 14 17 17 28 5 19 5 19 12 -2 4 -13
15 -23 24 -23 16 0 41 41 41 67 0 20 -17 15 -23 -7 -3 -11 -10 -20 -16 -20
-17 0 -26 31 -11 40 16 10 4 50 -16 50 -8 0 -14 7 -14 15 0 9 9 15 24 15 44 0
56 -10 56 -46 0 -19 5 -34 10 -34 6 0 10 -18 10 -40 0 -33 3 -40 20 -40 17 0
20 7 20 40 0 36 3 40 25 40 23 0 25 -4 25 -40 l0 -40 64 0 65 0 4 -37 c3 -21
3 15 1 80 -3 99 -2 117 11 117 11 0 15 11 15 40 0 33 3 40 20 40 18 0 20 -7
20 -80 0 -53 4 -80 11 -80 8 0 10 17 6 55 l-6 55 40 0 c37 0 39 2 39 30 0 28
2 30 40 30 39 0 40 1 40 35 l0 35 51 0 c45 0 50 2 44 19 -8 25 21 54 46 46 11
-4 19 -2 19 4 0 6 16 11 35 11 34 0 35 1 35 40 0 35 3 40 23 40 18 0 23 5 22
28 0 20 5 27 20 27 16 0 21 -8 23 -42 3 -43 3 -43 43 -43 32 0 39 3 39 20 0
22 30 90 40 90 4 0 14 -15 23 -32 l17 -33 -3 40 -2 40 54 3 c30 2 59 -2 64 -7
6 -6 37 -11 68 -11 55 0 58 -1 61 -27 l4 -28 11 25 c6 14 23 34 37 44 14 10
26 27 26 37 0 15 8 19 43 20 23 0 36 3 30 6 -8 2 -13 22 -13 44 0 35 3 39 25
39 16 0 25 6 25 16 0 9 -7 14 -17 12 -27 -5 -56 26 -48 51 3 12 11 21 16 21
18 0 54 41 54 62 0 12 6 23 13 25 6 3 12 -2 12 -11 0 -21 9 -20 27 1 12 16 13
15 12 -12 -4 -67 0 -85 21 -85 11 0 20 -7 20 -15 0 -35 23 -65 52 -65 15 0 28
5 28 11 0 14 42 1 58 -19 8 -10 9 -19 2 -26 -12 -12 34 -56 58 -56 10 0 25 9
35 20 14 17 20 18 37 8 11 -7 20 -20 20 -29 0 -9 9 -27 19 -40 16 -20 23 -22
38 -13 10 6 19 23 21 39 3 23 7 26 28 22 17 -3 24 0 24 12 0 9 7 25 15 35 8
11 18 41 21 67 5 36 12 50 26 55 10 3 32 18 48 34 15 15 37 34 47 41 39 30 64
79 63 122 -3 62 -1 67 16 60 8 -3 25 4 39 17 16 15 30 20 44 15 12 -4 21 -2
21 4 0 6 8 20 17 31 21 25 73 27 73 4 0 -14 8 -15 48 -10 115 16 124 18 113
29 -7 7 -18 7 -36 -1 -14 -7 -38 -11 -53 -11 -21 1 -22 2 -7 6 41 10 39 23 -3
23 -31 0 -42 4 -42 15 0 10 -10 15 -30 15 -16 0 -30 5 -30 10 0 12 14 12 65
-1 141 -36 312 -69 328 -64 7 2 36 6 65 10 49 5 53 4 44 -11 -8 -15 -27 -18
-113 -19 -57 -1 -107 3 -110 7 -3 5 -29 3 -57 -3 -64 -15 -71 -39 -12 -39 29
0 40 4 40 15 0 23 8 19 51 -27 21 -23 39 -52 39 -64 0 -25 14 -39 30 -29 6 4
6 15 0 30 -9 22 -7 25 15 25 22 0 25 4 25 40 0 36 3 40 25 40 23 0 25 -4 25
-40 0 -35 -3 -40 -23 -40 -27 0 -53 -39 -44 -64 4 -9 1 -16 -5 -16 -6 0 -5 -6
3 -16 8 -10 15 -12 17 -5 2 6 22 12 45 12 23 1 34 3 25 6 -25 6 -26 83 -1 83
9 0 25 7 35 17 17 15 19 15 38 -2 20 -18 20 -17 20 18 0 27 8 44 33 70 29 31
36 34 80 29 l47 -4 0 -64 0 -64 -40 0 c-22 0 -40 -2 -40 -5 0 -11 34 -75 40
-75 4 0 15 18 25 40 24 53 45 53 45 0 0 -29 -4 -40 -15 -40 -12 0 -15 -12 -14
-52 0 -29 3 -47 6 -40 7 17 53 16 53 -2 0 -7 -7 -19 -15 -26 -18 -15 -20 -40
-4 -40 22 0 38 35 39 83 l0 47 40 0 40 0 0 55 c0 42 -3 55 -15 55 -11 0 -15
11 -15 40 0 29 4 40 15 40 11 0 15 12 15 50 l0 50 -39 0 c-22 0 -41 -5 -43
-12 -5 -15 -38 -3 -38 15 0 18 43 37 85 37 27 0 35 -4 35 -17 0 -15 4 -14 19
6 l19 24 12 -34 12 -34 129 -2 129 -2 0 920 0 919 -2880 0 -2880 0 0 -840z
m3715 645 c23 -22 25 -23 25 -4 0 28 25 34 56 14 34 -22 29 -57 -11 -69 -57
-17 -72 -28 -100 -73 l-29 -44 -28 30 c-45 48 -77 101 -71 117 9 24 50 16 77
-17 27 -32 38 -17 14 20 -29 47 25 69 67 26z m335 -35 c0 -5 -4 -10 -10 -10
-5 0 -13 -12 -16 -26 -5 -20 -11 -24 -28 -20 -11 3 -27 6 -35 6 -11 0 -11 3
-1 15 16 19 30 19 30 -1 0 -8 5 -12 11 -9 6 4 8 13 5 21 -3 8 1 14 9 14 8 0
15 5 15 10 0 6 5 10 10 10 6 0 10 -4 10 -10z m-159 -24 c-15 -18 -23 -104 -10
-112 5 -3 23 2 41 10 45 23 57 19 26 -9 -29 -25 -38 -68 -17 -81 6 -3 23 5 37
19 15 13 32 23 39 20 6 -2 14 1 18 6 11 19 26 12 16 -6 -26 -52 -33 -72 -27
-82 9 -15 42 -14 66 1 10 7 22 9 26 5 12 -11 -68 -87 -91 -87 -12 0 -26 -5
-33 -12 -10 -10 -11 -6 -6 19 16 79 -51 99 -117 35 -21 -22 -39 -46 -39 -55 0
-30 23 -30 52 2 16 17 33 31 39 31 13 0 11 -28 -2 -32 -7 -2 -9 -13 -5 -26 6
-16 13 -21 26 -17 15 5 17 2 13 -14 -8 -31 26 -40 48 -13 21 26 34 29 24 5 -4
-10 -9 -42 -11 -70 -5 -61 3 -65 48 -28 28 24 58 33 58 18 0 -5 -16 -24 -34
-44 -33 -34 -34 -38 -19 -59 12 -17 17 -19 24 -9 6 10 9 8 9 -8 0 -34 18 -37
52 -8 37 32 52 16 19 -19 -22 -24 -27 -51 -11 -61 6 -4 28 11 50 32 31 31 38
44 33 64 -8 32 -32 59 -53 59 -10 0 -20 9 -23 20 -3 11 -1 18 3 15 5 -3 11 -1
15 5 3 5 1 10 -4 10 -6 0 -11 11 -11 24 0 34 -23 49 -65 42 -27 -5 -35 -4 -35
8 0 24 22 66 35 66 6 0 28 16 49 35 40 36 52 41 74 26 10 -6 11 -13 1 -34 -9
-21 -9 -30 0 -41 11 -13 17 -11 42 12 39 35 119 43 119 13 0 -11 -13 -31 -30
-44 -36 -31 -41 -67 -9 -67 12 0 32 11 45 25 23 25 54 34 54 16 0 -5 -15 -26
-34 -46 -26 -27 -41 -35 -64 -33 -25 2 -82 -23 -82 -36 0 -27 15 -36 49 -30
l36 6 -27 -26 c-16 -15 -28 -36 -28 -47 0 -18 4 -20 30 -14 22 5 30 3 30 -7
-1 -14 -34 -58 -45 -58 -4 0 -16 -11 -26 -24 -11 -14 -28 -28 -39 -31 -13 -4
-20 -15 -20 -31 0 -28 0 -28 64 -9 36 11 53 12 62 4 11 -9 6 -18 -20 -45 -23
-24 -32 -41 -29 -55 6 -20 23 -37 23 -21 0 5 11 14 25 20 21 10 25 9 25 -3 0
-8 -6 -15 -14 -15 -8 0 -22 -10 -30 -22 -23 -32 -6 -44 42 -30 22 7 47 12 56
12 16 0 16 -2 2 -15 -8 -8 -18 -24 -21 -35 -4 -11 -15 -20 -26 -20 -25 0 -37
-29 -18 -44 8 -6 13 -21 11 -33 -3 -19 1 -23 21 -23 26 0 37 16 37 55 0 14 7
26 18 28 128 35 147 0 56 -101 -35 -39 -54 -68 -50 -77 8 -22 23 -18 53 15 26
29 53 40 53 20 0 -5 -18 -24 -40 -41 -46 -37 -50 -55 -15 -71 30 -13 31 -19 7
-49 -13 -15 -30 -22 -50 -22 -27 0 -32 -4 -32 -23 0 -13 5 -26 10 -29 18 -11
11 -23 -26 -44 -36 -21 -36 -21 -41 -1 -7 26 -18 25 -37 -2 -20 -28 -20 -58
-1 -58 8 0 15 -4 15 -8 0 -15 -24 -32 -46 -32 -13 0 -38 -9 -56 -19 -42 -25
-135 -43 -220 -45 -69 -1 -110 16 -69 29 31 10 56 101 55 205 -1 120 -46 288
-96 362 -10 14 -18 36 -18 47 0 12 -4 21 -10 21 -5 0 -10 5 -10 11 0 22 -50
134 -100 224 -90 161 -100 193 -107 363 -5 121 -4 134 12 146 12 9 19 29 21
60 2 25 6 51 9 56 11 18 27 11 20 -9 -5 -16 -2 -18 27 -12 25 5 34 13 36 30 4
26 21 47 61 73 32 21 47 23 32 4z m289 -5 c-1 -3 -14 -22 -30 -41 -17 -19 -30
-42 -30 -52 0 -19 33 -41 45 -30 4 4 6 0 3 -8 -2 -8 -14 -16 -25 -18 -16 -2
-24 5 -33 32 -13 40 -33 56 -63 48 -14 -4 -18 -2 -12 7 4 7 16 11 26 8 11 -3
19 -1 19 4 0 5 6 9 14 9 8 0 13 8 12 18 -1 11 5 16 17 14 9 -2 20 4 23 12 5
14 34 12 34 -3z m-2217 -64 c8 -12 22 -47 32 -77 9 -30 43 -102 74 -160 32
-58 64 -121 73 -140 19 -42 78 -208 78 -220 0 -19 -97 34 -136 74 -36 38 -44
54 -63 137 -61 258 -83 344 -97 371 -25 49 8 62 39 15z m2284 -193 c-3 -3 -12
-4 -19 -1 -8 3 -5 6 6 6 11 1 17 -2 13 -5z m-2010 -246 c-3 -8 -6 -5 -6 6 -1
11 2 17 5 13 3 -3 4 -12 1 -19z m1907 -23 c-4 -8 -11 -15 -16 -15 -6 0 -5 6 2
15 7 8 14 15 16 15 2 0 1 -7 -2 -15z m-2390 -256 c51 -30 45 -42 -8 -16 -25
12 -42 25 -40 29 7 11 8 11 48 -13z m2086 -110 c50 -97 56 -129 26 -129 -7 0
-41 -20 -75 -45 -34 -25 -63 -45 -66 -45 -10 0 -4 76 11 140 8 36 20 91 26
123 6 31 15 57 19 57 4 0 30 -45 59 -101z m-2250 51 c-8 -15 -20 -20 -45 -18
-18 1 -31 6 -28 11 7 11 43 26 66 26 15 1 16 -2 7 -19z m161 -5 c31 -17 53
-65 52 -113 -1 -25 -11 -44 -37 -71 -20 -20 -36 -42 -36 -49 0 -23 29 -12 55
22 18 24 31 32 45 29 25 -7 25 -8 0 -49 -24 -38 -90 -79 -150 -93 -54 -12 -73
-6 -60 19 8 15 5 22 -12 34 -26 18 -48 21 -48 6 0 -16 -30 -12 -37 6 -3 8 4
25 16 38 31 32 24 94 -14 132 -34 35 -6 45 43 17 16 -9 35 -32 41 -50 15 -41
37 -63 61 -63 44 0 29 97 -23 152 -29 30 -29 32 -11 45 21 16 71 10 115 -12z
m-459 -11 c-14 -88 -14 -111 3 -127 19 -20 48 -9 65 23 6 11 17 20 24 20 8 0
16 6 19 14 6 14 47 29 47 17 0 -4 -9 -24 -20 -46 -24 -47 -25 -67 -5 -106 12
-21 13 -34 5 -48 -5 -11 -10 -31 -10 -44 0 -25 -21 -38 -82 -53 -42 -9 -130
22 -186 67 -53 42 -64 62 -37 73 24 9 17 26 -17 41 -18 8 -28 14 -23 15 6 0
18 14 27 30 24 42 35 38 41 -16 8 -71 70 -137 113 -120 19 8 19 8 0 19 -88 54
-111 106 -78 180 28 64 122 114 114 61z m546 -29 c13 -21 32 -37 49 -41 40
-10 60 -30 67 -70 5 -24 15 -38 37 -50 20 -10 29 -20 25 -30 -3 -9 -6 -24 -6
-35 0 -10 -4 -19 -10 -19 -5 0 -10 10 -10 23 0 12 -13 38 -30 57 -16 19 -29
42 -30 51 0 29 -27 43 -56 30 -38 -17 -40 -15 -53 46 -17 87 -15 93 17 38z
m-875 -43 c9 -10 15 -31 14 -47 -2 -26 1 -30 21 -27 13 1 31 -2 40 -8 14 -7
11 -10 -16 -16 -41 -8 -51 -24 -25 -41 20 -13 19 -14 -9 -71 -24 -47 -29 -66
-26 -109 5 -57 -7 -63 -18 -8 -4 21 0 53 11 85 13 40 14 55 5 63 -8 9 -14 8
-22 -7 -8 -14 -12 -15 -18 -5 -10 15 13 65 32 71 17 6 11 89 -7 107 -21 21
-49 3 -53 -33 -4 -29 -22 -26 -22 5 0 26 30 57 56 58 11 1 28 -7 37 -17z
m1332 -162 c9 -91 18 -167 18 -170 3 -8 -16 -10 -40 -4 -23 6 -36 31 -54 106
-9 39 -9 50 5 70 9 12 16 35 16 50 0 15 5 30 10 33 6 3 10 27 10 53 0 97 19
22 35 -138z m-398 46 c-4 -9 -11 -16 -18 -16 -6 0 -8 7 -5 16 3 9 6 21 6 27 0
8 3 8 11 0 7 -7 9 -19 6 -27z m859 -14 c19 -14 24 -21 14 -22 -9 0 -20 4 -25
8 -6 5 -30 14 -55 21 -25 8 -49 15 -55 17 -5 2 13 2 41 0 34 -2 62 -10 80 -24z
m2284 -18 c0 -14 10 -15 80 -9 56 5 80 4 80 -4 0 -7 -24 -11 -65 -11 -36 0
-65 -2 -65 -4 0 -2 -2 -11 -6 -19 -3 -9 6 -19 25 -27 42 -17 40 -35 -1 -25
-48 11 -62 10 -176 -14 -109 -22 -167 -27 -144 -12 11 7 11 9 -2 14 -10 4 -20
-1 -26 -13 -6 -11 -20 -20 -31 -20 -11 0 -28 -4 -37 -9 -9 -5 -38 -12 -64 -16
-61 -9 -65 10 -6 25 27 8 37 14 29 19 -10 6 -9 10 3 14 8 3 18 1 22 -4 4 -6
11 -3 19 8 7 10 38 32 69 47 31 16 56 32 56 36 0 4 20 4 45 0 24 -4 42 -3 39
2 -3 4 13 8 35 8 23 0 41 -4 41 -10 0 -17 20 -11 27 8 12 32 53 45 53 16z
m-2428 -17 c7 -8 20 -12 30 -9 42 11 25 -125 -18 -142 -17 -7 -17 -1 1 49 8
22 14 47 15 55 0 25 -16 -3 -29 -50 -7 -25 -22 -58 -33 -73 -31 -43 -97 -87
-130 -87 -50 0 -27 -23 51 -50 125 -44 147 -83 85 -154 -39 -43 -81 -62 -149
-68 -23 -2 -31 -8 -33 -28 -6 -42 -60 -108 -134 -162 -39 -29 -107 -91 -152
-136 -88 -92 -132 -119 -209 -132 -61 -9 -182 5 -214 26 -26 16 -65 18 -79 4
-5 -5 -37 -13 -71 -16 -81 -9 -154 15 -224 72 -30 24 -85 68 -124 98 -105 81
-255 247 -258 286 -1 11 -6 20 -11 20 -6 0 -7 3 0 10 5 5 68 11 139 12 l130 3
-83 9 -83 9 3 31 3 31 63 -3 c34 -2 85 2 113 8 43 11 72 10 178 -5 69 -10 131
-22 138 -27 24 -19 2 -38 -46 -39 l-46 -2 55 -7 c73 -9 290 0 290 13 0 6 -31
7 -85 3 -73 -6 -86 -5 -91 9 -4 9 -4 19 0 22 13 13 112 22 141 13 17 -5 48
-11 70 -14 53 -6 53 -6 30 -16 -19 -8 -19 -9 2 -9 12 -1 25 -5 28 -11 3 -5 33
-10 66 -10 53 0 61 -2 71 -24 6 -14 17 -27 25 -30 19 -8 53 11 53 28 0 27 30
37 135 46 58 4 109 11 113 15 3 3 -2 29 -11 56 -11 31 -16 62 -12 80 8 33 24
38 32 9 3 -11 9 -20 13 -20 4 0 0 20 -8 44 -18 48 -19 43 41 119 18 22 31 54
35 84 7 45 9 48 47 59 55 17 122 17 137 1z m-1532 -18 c0 -5 -4 -9 -10 -9 -5
0 -10 7 -10 16 0 8 5 12 10 9 6 -3 10 -10 10 -16z m888 -17 c2 -18 -2 -40 -9
-48 -16 -19 -69 -19 -69 1 0 8 9 15 20 15 17 0 19 5 14 24 -7 31 2 48 24 44
11 -2 18 -15 20 -36z m3152 8 c0 -5 -2 -10 -4 -10 -3 0 -8 5 -11 10 -3 6 -1
10 4 10 6 0 11 -4 11 -10z m-4070 -82 c0 -25 2 -28 14 -19 22 18 58 -4 54 -32
-4 -32 -77 -47 -114 -22 -22 14 -25 22 -20 48 3 17 13 42 22 55 12 19 18 21
30 11 8 -6 14 -25 14 -41z m560 -41 c14 -7 26 -20 28 -30 3 -15 -6 -17 -67
-17 -76 0 -93 10 -65 41 20 22 67 25 104 6z m3590 3 c0 -5 -15 -10 -32 -9 -28
0 -30 2 -13 9 28 12 45 12 45 0z m-3990 -8 c0 -14 -39 -46 -47 -39 -3 4 -1 7
5 7 6 0 14 9 17 20 6 20 25 28 25 12z m830 -22 c0 -18 -7 -33 -17 -38 -19 -10
-57 0 -68 18 -11 18 25 50 57 50 24 0 28 -4 28 -30z m-710 -23 c0 -12 -61 0
-75 14 -7 7 -5 13 5 19 15 9 70 -17 70 -33z m501 23 c42 -23 7 -59 -58 -60
l-43 0 18 35 c18 37 45 45 83 25z m277 -38 c3 -35 8 -45 32 -57 16 -8 34 -15
40 -15 15 0 12 26 -5 40 -14 11 -12 15 15 31 37 23 59 24 88 3 31 -21 28 -60
-7 -95 -35 -35 -45 -36 -59 -6 -10 21 -11 20 -11 -10 -1 -42 -37 -79 -83 -88
-31 -6 -38 -12 -44 -39 -11 -51 -44 -78 -44 -36 0 11 4 20 9 20 5 0 12 12 15
26 13 50 -36 72 -76 34 -20 -18 -68 -28 -68 -14 0 3 16 12 36 20 31 13 35 18
32 47 -3 29 -7 33 -45 41 -50 10 -59 36 -14 36 16 0 41 -4 55 -10 20 -7 27 -6
35 7 5 10 22 17 38 18 26 0 28 3 25 35 -1 19 0 40 3 48 10 27 30 5 33 -36z
m67 28 c3 -5 -1 -10 -9 -10 -9 0 -16 5 -16 10 0 6 4 10 9 10 6 0 13 -4 16 -10z
m-242 -20 c6 -22 -11 -31 -35 -18 -26 13 -22 38 6 38 15 0 26 -7 29 -20z
m2045 1 c37 -23 19 -175 -26 -223 -30 -33 -48 -34 -81 -8 -21 18 -23 26 -19
84 3 51 10 71 32 101 15 20 38 40 50 45 27 11 29 11 44 1z m-2734 -20 c3 -5
16 -11 28 -14 135 -34 162 -36 364 -37 l211 0 11 -25 c6 -13 28 -32 49 -40 30
-13 35 -18 23 -25 -23 -15 -45 -12 -64 9 -17 18 -20 19 -59 4 -65 -24 -290
-29 -406 -9 -101 18 -188 43 -197 57 -8 14 -34 10 -34 -5 0 -7 7 -19 15 -26
26 -22 17 -30 -33 -30 -58 0 -68 7 -45 33 17 18 17 19 -2 33 -23 17 -15 25 47
48 26 10 50 22 53 27 8 11 32 12 39 0z m201 -1 c7 -12 -2 -12 -30 0 -19 8 -19
9 2 9 12 1 25 -3 28 -9z m-495 -160 c-36 -11 -50 -11 -50 0 0 6 17 10 38 9 33
-1 34 -2 12 -9z m-112 -21 c-10 -5 -18 -18 -18 -28 0 -26 -9 -31 -36 -19 -46
21 -17 56 46 57 22 0 23 -1 8 -10z m1177 -19 c3 -5 1 -10 -4 -10 -6 0 -11 5
-11 10 0 6 2 10 4 10 3 0 8 -4 11 -10z m3609 -16 c18 -7 12 -24 -10 -24 -8 0
-14 7 -14 15 0 17 2 18 24 9z m-1138 -19 c-8 -8 -18 -15 -22 -15 -3 0 -1 7 6
15 7 8 17 15 22 15 5 0 3 -7 -6 -15z m719 -6 c-33 -11 -67 -18 -75 -17 -20 4
78 37 110 37 15 0 1 -8 -35 -20z m-98 -15 c-3 -3 -12 -4 -19 -1 -8 3 -5 6 6 6
11 1 17 -2 13 -5z m8 -61 c-5 -10 -8 -21 -7 -25 1 -3 -5 -12 -14 -19 -12 -10
-18 -9 -32 4 -15 16 -15 17 1 17 9 0 17 7 17 15 0 13 31 38 39 30 2 -2 0 -12
-4 -22z m-685 1 c0 -8 -4 -12 -10 -9 -5 3 -10 10 -10 16 0 5 5 9 10 9 6 0 10
-7 10 -16z m-42 -12 c9 -6 5 -12 -14 -21 -31 -14 -42 -8 -24 14 14 17 20 18
38 7z m-641 -66 c-23 -45 -40 -53 -29 -13 10 31 35 67 43 61 5 -2 -2 -24 -14
-48z m160 18 c73 -13 87 -29 55 -61 -10 -10 -31 -35 -46 -55 -22 -30 -35 -38
-60 -38 -31 0 -86 39 -86 61 0 32 67 112 86 105 7 -3 30 -8 51 -12z m288 -14
c3 -5 -6 -28 -20 -51 -32 -49 -27 -64 5 -17 34 49 49 58 102 58 39 0 50 -4 63
-24 9 -13 13 -31 9 -42 -12 -33 -72 -101 -122 -137 -40 -30 -50 -44 -61 -85
-15 -59 -47 -93 -90 -94 -62 -2 -91 62 -55 117 9 14 12 25 7 25 -12 0 -32 -37
-36 -65 -5 -35 -17 -45 -45 -39 -15 4 -33 11 -39 17 -16 12 -17 61 -3 88 6 10
7 19 2 19 -5 0 -15 -13 -22 -30 -15 -36 -32 -38 -50 -5 -12 22 -10 29 14 65
14 22 30 40 35 40 5 0 18 -11 29 -25 18 -23 25 -25 64 -18 l43 7 -50 11 c-44
10 -50 14 -53 39 -3 21 7 39 45 79 46 50 51 52 123 63 101 15 98 15 105 4z
m-467 -114 c-2 -11 -9 -22 -17 -24 -10 -3 -12 0 -7 13 4 13 2 16 -9 11 -9 -3
-15 0 -15 8 0 9 10 13 25 12 19 -1 25 -6 23 -20z m115 -45 c8 -8 -17 -76 -35
-98 -13 -16 -43 -1 -58 27 -8 14 -6 29 5 56 14 33 17 35 47 29 18 -4 36 -10
41 -14z m-1646 -76 c-10 -7 -17 -17 -17 -24 0 -6 -4 -11 -10 -11 -5 0 -10 5
-10 12 0 18 31 48 43 41 6 -4 4 -11 -6 -18z m-77 -105 c-20 -13 -33 -13 -25 0
3 6 14 10 23 10 15 0 15 -2 2 -10z m-343 -86 c-3 -3 -12 -4 -19 -1 -8 3 -5 6
6 6 11 1 17 -2 13 -5z m-1587 -54 c0 -4 -7 -10 -15 -14 -11 -4 -15 2 -15 21 0
21 2 24 15 13 8 -7 15 -16 15 -20z m2330 10 c0 -21 -24 -28 -35 -10 -8 14 3
30 21 30 8 0 14 -9 14 -20z m-2123 -12 c-3 -8 -6 -5 -6 6 -1 11 2 17 5 13 3
-3 4 -12 1 -19z m-87 -121 c0 -8 14 -11 45 -9 40 4 45 2 45 -17 0 -18 -6 -21
-40 -21 -25 0 -40 -5 -40 -12 -1 -14 -30 49 -30 63 0 5 5 9 10 9 6 0 10 -6 10
-13z m270 -132 c10 -12 10 -15 -4 -15 -9 0 -16 7 -16 15 0 8 2 15 4 15 2 0 9
-7 16 -15z m1680 0 c10 -12 10 -15 -4 -15 -9 0 -16 7 -16 15 0 8 2 15 4 15 2
0 9 -7 16 -15z m400 0 c10 -12 10 -15 -4 -15 -9 0 -16 7 -16 15 0 8 2 15 4 15
2 0 9 -7 16 -15z m-1730 -55 c0 -5 -4 -10 -10 -10 -5 0 -10 5 -10 10 0 6 5 10
10 10 6 0 10 -4 10 -10z m1150 0 c0 -5 -18 -10 -40 -10 -22 0 -40 5 -40 10 0
6 18 10 40 10 22 0 40 -4 40 -10z m480 -10 c0 -5 -18 -10 -40 -10 -22 0 -40
-4 -40 -10 0 -5 -18 -10 -40 -10 -57 0 -55 27 3 33 86 7 117 7 117 -3z m-233
-92 c-2 -13 -4 -3 -4 22 0 25 2 35 4 23 2 -13 2 -33 0 -45z m-1278 -4 c3 -16
1 -17 -13 -5 -19 16 -21 34 -3 29 6 -3 14 -13 16 -24z m85 -16 c6 -4 7 -10 3
-15 -10 -9 -27 16 -26 37 1 13 1 13 6 0 3 -8 11 -18 17 -22z m-814 12 c0 -5
-4 -10 -10 -10 -5 0 -10 5 -10 10 0 6 5 10 10 10 6 0 10 -4 10 -10z m240 -20
c0 -5 -2 -10 -4 -10 -3 0 -8 5 -11 10 -3 6 -1 10 4 10 6 0 11 -4 11 -10z
m-240 -57 c0 -8 -13 -13 -30 -13 -33 0 -36 7 -18 45 l12 26 18 -23 c10 -13 18
-29 18 -35z m160 -18 c0 -22 4 -25 40 -25 33 0 40 -3 40 -20 0 -17 -7 -20 -40
-20 -28 0 -40 4 -40 14 0 8 -7 16 -15 20 -8 3 -15 17 -15 31 0 16 6 25 15 25
9 0 15 -9 15 -25z m720 15 c0 -5 -4 -10 -10 -10 -5 0 -10 5 -10 10 0 6 5 10
10 10 6 0 10 -4 10 -10z m-80 -26 c0 -9 -7 -14 -17 -12 -25 5 -28 28 -4 28 12
0 21 -6 21 -16z m740 -54 c0 -5 -4 -10 -10 -10 -5 0 -10 5 -10 10 0 6 5 10 10
10 6 0 10 -4 10 -10z m-638 -171 c13 -8 3 -39 -12 -39 -6 0 -9 37 -8 103 2 99
2 99 5 22 2 -44 9 -82 15 -86z m858 116 c0 -8 5 -15 10 -15 6 0 10 -4 10 -10
0 -5 -22 -10 -50 -10 -47 0 -50 2 -50 25 0 23 4 25 40 25 29 0 40 -4 40 -15z
m880 -5 c0 -5 -6 -10 -14 -10 -8 0 -18 5 -21 10 -3 6 3 10 14 10 12 0 21 -4
21 -10z m-2615 -49 c6 -20 -24 -61 -45 -61 -5 0 -10 -18 -10 -40 0 -29 4 -40
15 -40 8 0 15 -4 15 -9 0 -4 -11 -6 -25 -3 -18 3 -25 11 -25 27 0 12 -3 50 -6
84 l-7 61 41 0 c32 0 42 -4 47 -19z m98 12 c-35 -4 -42 -8 -45 -28 -2 -18 -7
-22 -17 -16 -8 5 -11 16 -6 30 5 18 13 21 58 19 49 -1 50 -2 10 -5z m1477 -49
c0 -25 -6 -25 -37 -1 -17 12 -7 27 18 27 14 0 19 -7 19 -26z m2083 -34 c65
-10 77 -15 77 -32 0 -10 6 -20 13 -22 6 -2 41 -12 77 -21 36 -10 78 -27 94
-38 15 -10 40 -23 55 -27 26 -7 28 -11 16 -42 -7 -19 20 -34 101 -58 108 -32
79 -51 -34 -22 -48 12 -107 24 -132 27 -69 9 -140 26 -140 33 0 7 29 33 65 56
17 12 17 16 5 30 -19 24 -54 16 -58 -12 -3 -18 -8 -21 -30 -16 -15 4 -41 19
-59 34 -27 24 -43 29 -123 35 -50 4 -94 4 -98 0 -4 -3 4 -15 18 -25 l25 -20
-22 -1 c-87 -6 -88 -6 -88 26 0 22 -6 33 -22 40 -13 5 -23 15 -23 22 0 7 -9
18 -20 25 -11 7 -20 17 -20 22 0 11 224 2 323 -14z m-3516 -52 c-2 -13 -4 -3
-4 22 0 25 2 35 4 23 2 -13 2 -33 0 -45z m93 47 c0 -8 -4 -15 -10 -15 -5 0
-10 7 -10 15 0 8 5 15 10 15 6 0 10 -7 10 -15z m-347 -2 c-7 -2 -19 -2 -25 0
-7 3 -2 5 12 5 14 0 19 -2 13 -5z m587 -48 c0 -8 -4 -15 -10 -15 -5 0 -10 7
-10 15 0 8 5 15 10 15 6 0 10 -7 10 -15z m-392 -7 c-6 -18 -28 -21 -28 -4 0 9
7 16 16 16 9 0 14 -5 12 -12z m872 -19 c0 -10 -4 -19 -10 -19 -5 0 -10 12 -10
26 0 14 4 23 10 19 6 -3 10 -15 10 -26z m2393 24 c2 -5 7 -20 11 -35 6 -25 4
-28 -19 -28 -14 0 -34 11 -47 25 -21 24 -26 25 -150 25 -79 0 -128 4 -128 10
0 12 326 14 333 3z m-3308 -43 c3 -5 19 -10 36 -10 16 0 29 -4 29 -10 0 -12
-59 -1 -85 17 -16 11 -17 13 -3 13 9 0 20 -4 23 -10z m1655 -17 c15 -20 18
-28 8 -34 -9 -6 -8 -10 5 -15 28 -10 19 -23 -25 -34 -24 -6 -56 -15 -72 -20
-16 -5 -32 -7 -35 -4 -8 7 19 23 50 30 24 5 59 44 40 44 -5 0 -12 -7 -15 -16
-7 -19 -62 -16 -58 4 1 7 -9 12 -25 13 -25 0 -26 1 -8 9 11 5 37 9 58 9 30 1
37 5 37 21 0 28 15 25 40 -7z m-278 5 c7 -19 -2 -38 -18 -38 -15 0 -17 9 -8
34 7 19 20 21 26 4z m108 3 c0 -5 -9 -11 -19 -14 -14 -3 -18 -1 -14 9 6 15 33
19 33 5z m-1260 -47 c0 -2 -7 -4 -15 -4 -8 0 -15 4 -15 10 0 5 7 7 15 4 8 -4
15 -8 15 -10z m-75 -8 c19 -8 35 -17 35 -20 0 -5 -79 22 -89 31 -11 8 23 1 54
-11z m345 -2 c0 -14 -3 -14 -15 -4 -8 7 -15 14 -15 16 0 2 7 4 15 4 8 0 15 -7
15 -16z m303 9 c-13 -2 -33 -2 -45 0 -13 2 -3 4 22 4 25 0 35 -2 23 -4z m517
3 c0 -3 -4 -8 -10 -11 -5 -3 -10 -1 -10 4 0 6 5 11 10 11 6 0 10 -2 10 -4z
m178 -8 c-7 -19 -38 -22 -38 -4 0 10 9 16 21 16 12 0 19 -5 17 -12z m-314 -14
c22 -9 10 -24 -20 -24 -15 0 -24 6 -24 15 0 16 17 19 44 9z m1836 -19 c26 -8
36 -14 23 -14 -12 -1 -25 -6 -28 -11 -8 -13 -208 -6 -212 7 -4 11 135 42 157
35 8 -2 35 -10 60 -17z m-2773 -1 c-3 -3 -12 -4 -19 -1 -8 3 -5 6 6 6 11 1 17
-2 13 -5z m573 -54 c0 -17 -7 -20 -40 -20 -33 0 -40 3 -40 20 0 17 7 20 40 20
33 0 40 -3 40 -20z m468 13 c-29 -7 -21 -33 13 -40 20 -4 26 -9 18 -13 -7 -5
-18 -6 -25 -3 -6 2 -15 0 -19 -6 -3 -6 -18 -10 -33 -10 -17 1 -21 3 -9 6 22 6
22 29 0 37 -14 6 -14 8 3 21 10 8 30 14 44 14 17 -1 19 -3 8 -6z m225 0 c-7
-2 -19 -2 -25 0 -7 3 -2 5 12 5 14 0 19 -2 13 -5z m-978 -13 c7 -11 -16 -11
-60 0 -28 7 -28 8 12 9 23 0 45 -3 48 -9z m108 3 c-13 -2 -33 -2 -45 0 -13 2
-3 4 22 4 25 0 35 -2 23 -4z m1997 -13 c0 -24 -100 -102 -186 -144 -96 -47
-110 -51 -138 -40 -33 13 -14 33 53 59 38 14 72 32 74 39 9 24 77 69 130 87
50 17 67 17 67 -1z m-1187 3 c-7 -2 -21 -2 -30 0 -10 3 -4 5 12 5 17 0 24 -2
18 -5z m-936 -29 c-3 -3 -12 -4 -19 -1 -8 3 -5 6 6 6 11 1 17 -2 13 -5z m686
-31 c-7 -2 -19 -2 -25 0 -7 3 -2 5 12 5 14 0 19 -2 13 -5z m-360 -23 c10 -9
-140 0 -167 10 -11 3 21 5 70 2 49 -2 93 -8 97 -12z m1107 -65 c0 -8 -9 -19
-21 -25 -31 -17 -140 -52 -146 -47 -6 7 136 84 160 86 4 1 7 -6 7 -14z m-1956
-21 c22 -22 12 -33 -27 -29 -44 4 -67 15 -67 31 0 20 74 18 94 -2z m3056 -114
c8 -15 23 -20 73 -22 45 -2 62 -7 62 -17 0 -12 -33 -15 -185 -16 -102 -1 -204
-5 -227 -10 -48 -9 -61 9 -19 25 13 5 29 17 34 27 10 17 26 20 224 31 18 1 31
-5 38 -18z m-1506 -24 c-3 -8 -21 -22 -40 -31 -24 -11 -34 -23 -34 -39 0 -20
-7 -25 -41 -30 -24 -4 -57 -2 -76 5 -49 16 -123 -12 -123 -46 0 -37 24 -48
101 -46 81 2 149 29 149 60 0 16 17 20 131 35 92 13 134 15 142 7 7 -7 6 -12
-4 -16 -83 -31 -315 -110 -354 -121 -59 -16 -101 -18 -110 -4 -3 6 -37 10 -75
10 l-69 0 -3 -32 -3 -33 -97 -3 c-91 -3 -128 8 -77 21 18 5 21 11 17 39 -7 42
-1 58 20 58 15 0 15 -2 2 -10 -21 -13 12 -25 68 -24 52 1 69 15 56 45 -9 20
-19 23 -88 24 -69 2 -109 15 -94 30 3 3 47 10 97 16 77 9 94 8 106 -5 13 -13
25 -11 103 14 305 101 306 101 296 76z m-1169 -57 c18 -7 18 -8 -5 -8 -14 0
-38 6 -55 14 l-30 15 35 -6 c19 -4 44 -10 55 -15z m198 -53 c12 -7 63 -19 112
-26 50 -6 116 -16 149 -22 63 -10 70 -8 71 25 0 13 6 22 15 22 10 0 14 -8 12
-26 -2 -14 4 -31 12 -39 9 -7 16 -17 16 -23 0 -14 -190 -2 -265 16 -33 8 -87
21 -120 28 -65 13 -85 24 -85 45 0 18 54 18 83 0z m-509 -31 c38 -13 77 -32
85 -41 15 -15 14 -16 -9 -9 -43 11 -134 48 -155 62 -31 20 1 16 79 -12z m1286
5 c12 -8 12 -10 -2 -15 -23 -9 -50 -3 -56 13 -4 14 36 16 58 2z m2601 -180
c10 -6 19 -15 19 -21 0 -6 -7 -6 -19 1 -11 5 -26 8 -33 5 -7 -3 -22 1 -33 9
-19 15 -18 15 13 16 18 0 42 -5 53 -10z m-1571 -94 c0 -3 -4 -8 -10 -11 -5 -3
-10 -1 -10 4 0 6 5 11 10 11 6 0 10 -2 10 -4z m-154 -47 c6 -11 32 -9 67 6 9
4 17 3 17 -2 0 -5 -30 -20 -66 -33 -60 -21 -67 -21 -81 -7 -13 13 -14 19 -3
31 14 18 56 21 66 5z m-2540 -44 c10 -8 15 -14 9 -14 -5 0 -19 6 -29 14 -11 8
-15 15 -10 15 6 0 19 -7 30 -15z"/>
<path d="M3970 3844 c0 -8 5 -12 10 -9 6 4 8 11 5 16 -9 14 -15 11 -15 -7z"/>
<path d="M3683 3765 c0 -44 2 -61 4 -37 2 23 2 59 0 80 -2 20 -4 1 -4 -43z"/>
<path d="M4000 3806 c0 -9 5 -16 10 -16 6 0 10 4 10 9 0 6 -4 13 -10 16 -5 3
-10 -1 -10 -9z"/>
<path d="M4181 3724 c0 -11 3 -14 6 -6 3 7 2 16 -1 19 -3 4 -6 -2 -5 -13z"/>
<path d="M4290 3730 c-13 -8 -13 -10 2 -10 9 0 20 5 23 10 8 13 -5 13 -25 0z"/>
<path d="M3952 3571 c-2 -22 2 -42 8 -46 6 -4 10 11 10 39 0 56 -15 61 -18 7z"/>
<path d="M4114 3265 c-8 -21 4 -35 32 -35 17 0 24 -5 24 -20 0 -13 7 -20 20
-20 23 0 28 37 10 71 -13 23 -78 27 -86 4z"/>
<path d="M4187 3163 c-13 -12 -7 -32 12 -38 10 -3 21 -15 24 -26 3 -12 12 -19
19 -17 18 6 23 69 6 79 -16 10 -52 12 -61 2z"/>
<path d="M4282 2912 c0 -64 10 -81 31 -52 9 12 14 27 12 34 -2 6 -6 23 -9 39
-11 48 -35 33 -34 -21z"/>
<path d="M3991 2894 c0 -11 3 -14 6 -6 3 7 2 16 -1 19 -3 4 -6 -2 -5 -13z"/>
<path d="M4336 2802 c-7 -12 5 -81 16 -88 28 -18 52 58 26 84 -14 14 -35 16
-42 4z"/>
<path d="M4305 2684 c-28 -29 -47 -63 -40 -74 10 -16 30 -12 53 13 36 39 24
97 -13 61z"/>
<path d="M1356 2924 c-9 -35 5 -49 33 -32 27 17 24 52 -5 56 -16 2 -23 -4 -28
-24z"/>
<path d="M4880 2910 c0 -5 4 -10 9 -10 6 0 13 5 16 10 3 6 -1 10 -9 10 -9 0
-16 -4 -16 -10z"/>
<path d="M2368 2530 c2 -22 6 -40 8 -40 2 0 4 18 4 40 0 22 -3 40 -8 40 -4 0
-6 -18 -4 -40z"/>
<path d="M1325 2500 c-8 -13 35 -13 55 0 11 7 7 10 -17 10 -17 0 -35 -4 -38
-10z"/>
<path d="M1208 2493 c7 -3 16 -2 19 1 4 3 -2 6 -13 5 -11 0 -14 -3 -6 -6z"/>
<path d="M5020 2420 c0 -5 5 -10 10 -10 6 0 10 5 10 10 0 6 -4 10 -10 10 -5 0
-10 -4 -10 -10z"/>
<path d="M5680 2415 c0 -9 -9 -15 -25 -15 -25 0 -25 -1 -25 -80 0 -64 -3 -80
-15 -80 -11 0 -15 11 -15 40 l0 40 -40 0 -40 0 0 40 0 40 -40 0 -40 0 0 -40 0
-40 40 0 c40 0 40 0 40 -39 l0 -39 80 -7 c45 -4 80 -12 80 -18 0 -5 8 -3 18 6
10 10 28 17 40 17 21 0 22 4 22 95 l0 95 -40 0 c-29 0 -40 -4 -40 -15z"/>
<path d="M5093 2303 c-41 -20 -41 -27 -3 -43 27 -11 30 -17 30 -56 l0 -44 40
0 40 0 0 40 c0 36 -2 40 -25 40 -22 0 -25 4 -25 40 0 45 -7 48 -57 23z"/>
<path d="M4740 2294 c-11 -12 -10 -18 3 -32 16 -15 18 -15 34 0 13 14 14 20 3
32 -7 9 -16 16 -20 16 -4 0 -13 -7 -20 -16z"/>
<path d="M4843 2298 c-30 -14 -29 -22 2 -36 35 -16 35 -16 35 18 0 33 -4 34
-37 18z"/>
<path d="M5460 2200 c0 -33 3 -40 20 -40 17 0 20 7 20 40 0 33 -3 40 -20 40
-17 0 -20 -7 -20 -40z"/>
<path d="M5520 2145 c0 -11 11 -15 40 -15 29 0 40 4 40 15 0 11 -11 15 -40 15
-29 0 -40 -4 -40 -15z"/>
<path d="M5200 2120 c0 -5 18 -10 40 -10 22 0 40 5 40 10 0 6 -18 10 -40 10
-22 0 -40 -4 -40 -10z"/>
<path d="M3650 2065 c0 -9 9 -15 25 -15 14 0 25 5 25 11 0 5 -4 7 -10 4 -5 -3
-10 -1 -10 4 0 6 -7 11 -15 11 -8 0 -15 -7 -15 -15z"/>
<path d="M5378 2073 c12 -2 32 -2 45 0 12 2 2 4 -23 4 -25 0 -35 -2 -22 -4z"/>
<path d="M5280 2040 c0 -17 7 -20 40 -20 33 0 40 3 40 20 0 17 -7 20 -40 20
-33 0 -40 -3 -40 -20z"/>
<path d="M3722 2020 c0 -14 2 -19 5 -12 2 6 2 18 0 25 -3 6 -5 1 -5 -13z"/>
<path d="M4705 2010 c-3 -5 -1 -10 4 -10 6 0 11 5 11 10 0 6 -2 10 -4 10 -3 0
-8 -4 -11 -10z"/>
<path d="M3840 1980 c0 -5 5 -10 10 -10 6 0 10 5 10 10 0 6 -4 10 -10 10 -5 0
-10 -4 -10 -10z"/>
<path d="M4120 1880 c0 -5 5 -10 10 -10 6 0 10 5 10 10 0 6 -4 10 -10 10 -5 0
-10 -4 -10 -10z"/>
<path d="M3 1800 c0 -25 2 -35 4 -22 2 12 2 32 0 45 -2 12 -4 2 -4 -23z"/>
<path d="M3503 1790 c-6 -15 -7 -26 -1 -29 15 -5 20 5 16 31 l-5 23 -10 -25z"/>
<path d="M3218 1763 c27 -5 28 -18 3 -36 -17 -11 -19 -21 -14 -70 6 -55 7 -57
34 -57 27 0 29 3 29 40 0 33 3 40 20 40 11 0 20 -7 20 -15 0 -8 -7 -15 -15
-15 -13 0 -15 -12 -13 -67 3 -66 4 -68 34 -78 36 -12 124 -7 124 6 0 5 -18 9
-40 9 l-40 0 0 40 c0 29 -4 40 -15 40 -8 0 -15 7 -15 15 0 8 7 15 15 15 8 0
15 -7 15 -15 0 -11 11 -15 40 -15 36 0 40 3 40 25 0 16 6 25 15 25 8 0 15 9
15 19 0 18 -5 19 -55 14 l-55 -6 0 29 0 29 -19 -24 -18 -23 -13 33 c-18 43
-26 49 -75 47 -23 0 -30 -3 -17 -5z"/>
<path d="M3448 1753 c7 -3 16 -2 19 1 4 3 -2 6 -13 5 -11 0 -14 -3 -6 -6z"/>
<path d="M96 1685 c-18 -14 -17 -15 24 -15 41 0 42 1 24 15 -24 18 -24 18 -48
0z"/>
<path d="M3070 1662 c0 -45 -60 -83 -74 -47 -3 8 -12 15 -21 15 -8 0 -15 5
-15 10 0 6 -18 10 -40 10 -36 0 -40 -2 -40 -25 0 -14 4 -25 9 -25 5 0 11 -9
14 -20 7 -26 27 -26 34 0 4 15 11 19 25 14 11 -3 44 -3 74 1 42 5 54 10 54 23
0 10 7 28 16 40 14 21 14 22 -10 22 -18 0 -26 -5 -26 -18z"/>
<path d="M3163 1653 c-16 -33 -17 -53 -3 -53 6 0 10 -18 10 -40 0 -29 4 -40
15 -40 8 0 15 -4 15 -10 0 -5 -18 -10 -40 -10 -33 0 -40 -3 -40 -20 0 -17 7
-20 39 -20 22 0 42 -6 45 -12 4 -7 4 16 1 51 -3 35 -5 90 -5 122 0 65 -16 78
-37 32z"/>
<path d="M66 1651 c-4 -7 -5 -15 -2 -18 9 -9 19 4 14 18 -4 11 -6 11 -12 0z"/>
<path d="M3980 1640 c0 -5 5 -10 10 -10 6 0 10 5 10 10 0 6 -4 10 -10 10 -5 0
-10 -4 -10 -10z"/>
<path d="M3490 1615 c0 -8 7 -15 15 -15 8 0 15 7 15 15 0 8 -7 15 -15 15 -8 0
-15 -7 -15 -15z"/>
<path d="M3820 1615 c-10 -12 -10 -15 4 -15 9 0 16 7 16 15 0 8 -2 15 -4 15
-2 0 -9 -7 -16 -15z"/>
<path d="M3600 1590 c0 -5 7 -10 15 -10 8 0 15 5 15 10 0 6 -7 10 -15 10 -8 0
-15 -4 -15 -10z"/>
<path d="M2978 1523 c12 -2 32 -2 45 0 12 2 2 4 -23 4 -25 0 -35 -2 -22 -4z"/>
<path d="M2780 1510 c0 -5 5 -10 10 -10 6 0 10 5 10 10 0 6 -4 10 -10 10 -5 0
-10 -4 -10 -10z"/>
<path d="M3050 1480 l0 -40 -85 0 c-50 0 -85 -4 -85 -10 0 -5 -18 -10 -40 -10
-22 0 -40 5 -40 10 0 6 -4 10 -10 10 -5 0 -10 -18 -10 -40 0 -22 5 -40 10 -40
6 0 10 5 10 10 0 6 18 10 40 10 22 0 40 -4 40 -10 0 -5 18 -10 40 -10 29 0 40
-4 40 -15 0 -11 11 -15 40 -15 33 0 40 -4 40 -19 0 -20 19 -31 53 -31 26 0 53
48 37 64 -7 7 -10 3 -10 -12 0 -32 -26 -27 -39 8 -12 37 -6 57 21 66 14 4 18
12 14 27 -3 12 -6 37 -6 55 0 29 -3 32 -30 32 -28 0 -30 -2 -30 -40z"/>
<path d="M3647 1500 c3 -11 7 -20 9 -20 2 0 8 9 14 20 9 17 8 20 -9 20 -14 0
-18 -5 -14 -20z"/>
<path d="M4300 1510 c0 -5 5 -10 10 -10 6 0 10 5 10 10 0 6 -4 10 -10 10 -5 0
-10 -4 -10 -10z"/>
<path d="M2720 1410 c0 -27 5 -50 10 -50 6 0 10 23 10 50 0 28 -4 50 -10 50
-5 0 -10 -22 -10 -50z"/>
<path d="M3360 1450 c0 -5 12 -10 26 -10 23 0 25 -3 22 -42 -3 -43 -3 -43 -48
-49 -25 -3 -37 -7 -27 -7 10 -1 20 -9 23 -17 4 -8 18 -15 33 -14 23 0 24 1 6
9 -19 8 -19 9 2 9 12 1 24 5 27 10 3 5 15 7 26 4 11 -3 20 0 20 6 0 6 -4 11
-10 11 -5 0 -10 15 -10 34 0 56 -8 66 -51 66 -21 0 -39 -4 -39 -10z"/>
<path d="M3760 1450 c0 -5 5 -10 11 -10 5 0 7 5 4 10 -3 6 -8 10 -11 10 -2 0
-4 -4 -4 -10z"/>
<path d="M3603 1361 c-28 -26 -29 -30 -12 -34 21 -6 36 9 17 16 -7 3 7 6 32 7
25 1 38 4 30 7 -8 4 -19 12 -25 19 -8 10 -17 7 -42 -15z"/>
<path d="M3840 1372 c0 -6 -8 -13 -17 -15 -16 -4 -16 -5 -1 -6 18 -1 34 16 24
26 -3 4 -6 1 -6 -5z"/>
<path d="M3498 1333 c7 -3 16 -2 19 1 4 3 -2 6 -13 5 -11 0 -14 -3 -6 -6z"/>
<path d="M3968 1333 c6 -2 18 -2 25 0 6 3 1 5 -13 5 -14 0 -19 -2 -12 -5z"/>
<path d="M3184 1319 c-3 -6 -1 -16 5 -22 8 -8 11 -5 11 11 0 24 -5 28 -16 11z"/>
<path d="M145 1307 c-4 -10 -5 -21 -1 -24 10 -10 18 4 13 24 -4 17 -4 17 -12
0z"/>
<path d="M3288 1313 c7 -3 16 -2 19 1 4 3 -2 6 -13 5 -11 0 -14 -3 -6 -6z"/>
<path d="M2670 1295 c0 -8 5 -15 10 -15 6 0 10 7 10 15 0 8 -4 15 -10 15 -5 0
-10 -7 -10 -15z"/>
<path d="M2818 1283 c12 -2 32 -2 45 0 12 2 2 4 -23 4 -25 0 -35 -2 -22 -4z"/>
<path d="M2738 1263 c12 -2 32 -2 45 0 12 2 2 4 -23 4 -25 0 -35 -2 -22 -4z"/>
<path d="M2738 1243 c12 -2 32 -2 45 0 12 2 2 4 -23 4 -25 0 -35 -2 -22 -4z"/>
<path d="M4465 1240 c-3 -5 -1 -10 4 -10 6 0 11 5 11 10 0 6 -2 10 -4 10 -3 0
-8 -4 -11 -10z"/>
<path d="M5020 1240 c0 -5 5 -10 10 -10 6 0 10 5 10 10 0 6 -4 10 -10 10 -5 0
-10 -4 -10 -10z"/>
<path d="M2278 1193 c23 -2 61 -2 85 0 23 2 4 4 -43 4 -47 0 -66 -2 -42 -4z"/>
<path d="M2430 1156 c0 -8 4 -17 9 -20 11 -7 33 18 24 27 -12 12 -33 7 -33 -7z"/>
<path d="M2338 1153 c12 -2 32 -2 45 0 12 2 2 4 -23 4 -25 0 -35 -2 -22 -4z"/>
<path d="M2283 1133 c-24 -2 -43 -8 -43 -14 0 -5 -13 -9 -28 -9 -32 0 -52 -16
-52 -42 0 -22 9 -22 34 -3 27 21 46 19 46 -5 0 -11 5 -20 12 -20 6 0 3 -6 -8
-14 -30 -23 -13 -25 34 -5 40 18 42 20 42 63 l0 45 43 4 42 4 -40 0 c-22 0
-59 -2 -82 -4z"/>
<path d="M2498 1133 c12 -2 32 -2 45 0 12 2 2 4 -23 4 -25 0 -35 -2 -22 -4z"/>
<path d="M2465 1110 c3 -5 10 -10 16 -10 5 0 9 5 9 10 0 6 -7 10 -16 10 -8 0
-12 -4 -9 -10z"/>
<path d="M2415 1099 c-10 -15 1 -23 20 -15 9 3 13 10 10 16 -8 13 -22 13 -30
-1z"/>
</g>
</svg>
